<svg xmlns="http://www.w3.org/2000/svg" version="1.1" xmlns:xlink="http://www.w3.org/1999/xlink" xmlns:svgjs="http://svgjs.dev/svgjs" width="1500" height="1500" viewBox="0 0 1500 1500"><rect width="1500" height="1500" fill="#000000"></rect><g transform="matrix(0.6666666666666666,0,0,0.6666666666666666,249.39393939393938,438.5856950067477)"><svg viewBox="0 0 396 247" data-background-color="#000000" preserveAspectRatio="xMidYMid meet" height="935" width="1500" xmlns="http://www.w3.org/2000/svg" xmlns:xlink="http://www.w3.org/1999/xlink"><g id="tight-bounds" transform="matrix(1,0,0,1,0.2400000000000091,-0.09999999999999432)"><svg viewBox="0 0 395.52 247.2" height="247.2" width="395.52"><g><svg></svg></g><g><svg viewBox="0 0 395.52 247.2" height="247.2" width="395.52"><g transform="matrix(1,0,0,1,136.66281338912134,47.215199999999996)"><svg viewBox="0 0 122.1943732217573 152.7696" height="152.7696" width="122.1943732217573"><g><svg viewBox="0 0 122.1943732217573 152.7696" height="152.7696" width="122.1943732217573"><g><svg viewBox="0 0 122.19437322175733 152.76960000000003" height="152.7696" width="122.1943732217573"><g><svg viewBox="0 0 122.19437322175733 152.76960000000003" height="152.76960000000003" width="122.19437322175733"><g id="textblocktransform"><svg viewBox="0 0 122.19437322175733 152.76960000000003" height="152.76960000000003" width="122.19437322175733" id="textblock"><g><svg viewBox="0 0 122.19437322175733 152.76960000000003" height="152.76960000000003" width="122.19437322175733"><g transform="matrix(1,0,0,1,0,0)"><svg width="122.19437322175733" viewBox="0.44 -35.01 28 35.01" height="152.76960000000003" data-palette-color="#89939e"><path d="M17.94-28L17.94 0 10.96 0 10.96-28 0.44-28 0.44-35.01 28.44-35.01 28.44-28 17.94-28Z" opacity="1" transform="matrix(1,0,0,1,0,0)" fill="#89939e" class="wordmark-text-0" data-fill-palette-color="primary" id="text-0"></path></svg></g></svg></g></svg></g></svg></g></svg></g></svg></g></svg></g><path d="M318.964 41.215L318.964 0 71.764 0 71.764 247.2 318.964 247.2 318.964 205.985 305.187 205.985 305.187 233.423 85.541 233.423 85.541 13.777 305.187 13.777 305.187 41.215Z" fill="#89939e" stroke="transparent" data-fill-palette-color="tertiary"></path></svg></g><defs></defs></svg><rect width="395.52" height="247.2" fill="none" stroke="none" visibility="hidden"></rect></g></svg></g></svg>